<svg width="24" height="24" viewBox="0 0 24 24" fill="none" xmlns="http://www.w3.org/2000/svg">
<path d="M18.5 19.125H5.5V17.875H18.5V19.125ZM13.6885 6.375C14.0337 6.375 14.3135 6.65482 14.3135 7V11.4033H15.5391C15.7918 11.4033 16.0194 11.5556 16.1162 11.7891C16.2129 12.0226 16.1593 12.292 15.9805 12.4707L12.2109 16.2383C11.9669 16.4818 11.5711 16.4821 11.3271 16.2383L7.55762 12.4697C7.37928 12.2911 7.32539 12.0224 7.42188 11.7891C7.51855 11.5556 7.74733 11.4035 8 11.4033H9.22559V7C9.22559 6.65494 9.50557 6.37519 9.85059 6.375H13.6885Z" fill="black"/>
</svg>
